<svg>
    <symbol id="famous" class="w-4 h-4 fill-[#424750aa]" viewBox="0 0 24 24" xmlns="http://www.w3.org/2000/svg">
        <path fill-rule="evenodd" clip-rule="evenodd" d="M12.015 9.105c.222.397.41.73.466.842.361.724.519 1.31.519 2.053a2 2 0 01-4 0l.003-4.557c0-.953-1.206-1.367-1.79-.613C5.087 9.572 4 11.906 4 13.889 4 18.365 7.578 22 12 22c4.422 0 8-3.635 8-8.111 0-2.968-2.45-6.78-7.295-11.598a1 1 0 00-1.6.262c-.807 1.615-.807 3.28 0 4.894.178.356.582 1.076.91 1.658zM7 12a4 4 0 108 0c0-1.078-.238-1.962-.73-2.947-.079-.156-.31-.569-.566-1.024a50.532 50.532 0 01-.81-1.476c-.273-.546-.404-1.079-.393-1.612C16.18 8.811 18 11.834 18 13.889 18 17.267 15.31 20 12 20s-6-2.733-6-6.111c0-.87.33-1.925 1-3.154V12z" />
    </symbol>
    <symbol id="amazing" xmlns="http://www.w3.org/2000/svg" viewBox="0 0 24 24"><path fill-rule="evenodd" d="M15.112 2.234c.687.231 1.153.525 1.895 1.171l.536.474.109.09.142.104.653.42c.837.54 1.244.9 1.663 1.495.381.542.579 1 .794 1.841l.226.941.053.185.049.142.285.719c.36.914.483 1.457.483 2.184 0 .728-.124 1.27-.483 2.184l-.246.615-.08.22-.06.211-.227.941c-.215.842-.413 1.3-.795 1.843-.416.59-.822.95-1.646 1.483l-.67.431-.14.104-.176.147-.471.417c-.742.646-1.208.94-1.898 1.172-.688.23-1.206.272-2.224.199l-.687-.052-.197-.006-.086.001-.212.01-.586.047c-1.018.073-1.537.03-2.23-.201-.686-.231-1.152-.524-1.893-1.17l-.594-.522-.144-.111-.103-.072-.619-.395c-.821-.532-1.229-.894-1.643-1.483-.417-.593-.614-1.085-.855-2.085l-.146-.621-.061-.225-.06-.179-.285-.719C2.123 13.27 2 12.729 2 12c0-.727.124-1.27.483-2.184l.285-.717.082-.258.039-.147.146-.621.118-.46c.195-.707.39-1.131.737-1.624.414-.59.82-.95 1.643-1.483l.552-.352.153-.104.16-.123.124-.105.47-.417c.743-.646 1.209-.94 1.897-1.171.69-.232 1.209-.274 2.227-.2l.7.052.228.005.275-.013.564-.044c1.02-.074 1.539-.031 2.229.2zm-1.931 1.784l-.89.065c-.105.006-.2.008-.291.008l-.275-.007-.156-.009-.563-.044-.385-.024c-.514-.024-.767.012-1.094.122l-.108.039c-.35.132-.62.313-1.138.767l-.55.486-.155.125-.142.107-.23.158-.72.462c-.517.343-.733.545-.958.866-.23.326-.347.596-.51 1.247l-.193.815-.05.19-.05.17-.094.271-.345.87C4.061 11.287 4 11.594 4 12l.002.12c.012.35.082.65.282 1.18l.37.934.07.21.074.257.219.914c.162.65.28.92.51 1.247.247.352.485.564 1.121.973l.559.356c.118.077.204.138.296.207l.073.056.241.2.464.411c.569.5.839.67 1.241.805.404.135.694.159 1.484.1l.306-.025.555-.034.133-.002c.09 0 .186.003.291.008l.166.01.536.043c.79.059 1.08.035 1.478-.098.407-.138.678-.308 1.247-.807l.387-.344.212-.182.181-.142.186-.133.108-.073.721-.462c.518-.342.735-.546.96-.866.25-.357.367-.644.554-1.431l.091-.391c.032-.138.059-.245.084-.34l.075-.26.094-.273.345-.869c.223-.587.284-.894.284-1.299 0-.405-.061-.712-.284-1.299l-.37-.934-.095-.293-.075-.274-.149-.631-.098-.39c-.109-.402-.203-.64-.34-.865l-.115-.175c-.226-.32-.441-.523-.96-.866l-.624-.4a7.664 7.664 0 01-.255-.17l-.212-.157-.155-.126-.697-.613c-.42-.357-.669-.516-.977-.634l-.218-.074c-.322-.098-.603-.12-1.195-.081zM16 15.5a1.5 1.5 0 10-3 0 1.5 1.5 0 003 0zm-1.8-8.1l1.6 1.2-6 8-1.6-1.2 6-8zM11 8.5a1.5 1.5 0 10-3 0 1.5 1.5 0 003 0z" clip-rule="evenodd"></path></symbol>
    

    <symbol id="phone" xmlns="http://www.w3.org/2000/svg" viewBox="0 0 384 512"><!--!Font Awesome Free 6.7.2 by @fontawesome - https://fontawesome.com License - https://fontawesome.com/license/free Copyright 2025 Fonticons, Inc.--><path d="M16 64C16 28.7 44.7 0 80 0L304 0c35.3 0 64 28.7 64 64l0 384c0 35.3-28.7 64-64 64L80 512c-35.3 0-64-28.7-64-64L16 64zM224 448a32 32 0 1 0 -64 0 32 32 0 1 0 64 0zM304 64L80 64l0 320 224 0 0-320z"/></symbol>
<symbol xmlns:xlink="http://www.w3.org/1999/xlink" xmlns="http://www.w3.org/2000/svg" style="width: 18px; height: 18px;" width="18" height="18" id="vehicles"><defs><symbol  xmlns="http://www.w3.org/2000/svg" viewBox="0 0 18 18"><g clip-path="url(#clip0_966_244914)"><path d="M3.179 9.91c.073-.393.497-.638.91-.493.8.282 1.827.728 2.27 1.006.407.256.4.372.387.64l-.003.05c-.003.075-.072.137-.156.137H3.382c-.236 0-.415-.191-.377-.401l.174-.938zM13.912 9.417c.412-.145.837.1.91.494l.173.938c.039.21-.14.401-.377.401h-3.205c-.084 0-.152-.062-.156-.138l-.002-.049c-.014-.268-.02-.384.386-.64.443-.278 1.47-.724 2.271-1.006z"></path><path fill-rule="evenodd" d="M3.043 4.116A2.25 2.25 0 014.987 3h8.027c.8 0 1.54.425 1.943 1.116l1.475 2.529.54-.216a.75.75 0 01.557 1.392l-.484.194c.136.47.205.958.205 1.452V15a.75.75 0 01-.75.75h-.75A.75.75 0 0115 15v-1.51c-3.96.825-8.044.828-12 .011V15a.75.75 0 01-.75.75H1.5A.75.75 0 01.75 15v-2.625c0-.027.001-.052.003-.076a.945.945 0 01-.003-.072v-2.76c0-.494.07-.982.205-1.452L.472 7.82a.75.75 0 11.557-1.392l.54.216 1.474-2.529zm-.435 4.509h13.046c.064.275.096.557.096.842v2.316l-.275.065a28.06 28.06 0 01-13.225-.055V9.467c0-.285.033-.567.096-.842h.262zM4.987 4.5a.75.75 0 00-.648.372L3.025 7.125h11.95l-1.313-2.253a.75.75 0 00-.648-.372H4.987z" clip-rule="evenodd"></path></g><defs><clipPath id="clip0_966_244914"><path d="M0 0h18v18H0z"></path></clipPath></defs></symbol></defs><g><g clip-path="url(#clip0_966_244914)"><path d="M3.179 9.91c.073-.393.497-.638.91-.493.8.282 1.827.728 2.27 1.006.407.256.4.372.387.64l-.003.05c-.003.075-.072.137-.156.137H3.382c-.236 0-.415-.191-.377-.401l.174-.938zM13.912 9.417c.412-.145.837.1.91.494l.173.938c.039.21-.14.401-.377.401h-3.205c-.084 0-.152-.062-.156-.138l-.002-.049c-.014-.268-.02-.384.386-.64.443-.278 1.47-.724 2.271-1.006z"></path><path fill-rule="evenodd" d="M3.043 4.116A2.25 2.25 0 014.987 3h8.027c.8 0 1.54.425 1.943 1.116l1.475 2.529.54-.216a.75.75 0 01.557 1.392l-.484.194c.136.47.205.958.205 1.452V15a.75.75 0 01-.75.75h-.75A.75.75 0 0115 15v-1.51c-3.96.825-8.044.828-12 .011V15a.75.75 0 01-.75.75H1.5A.75.75 0 01.75 15v-2.625c0-.027.001-.052.003-.076a.945.945 0 01-.003-.072v-2.76c0-.494.07-.982.205-1.452L.472 7.82a.75.75 0 11.557-1.392l.54.216 1.474-2.529zm-.435 4.509h13.046c.064.275.096.557.096.842v2.316l-.275.065a28.06 28.06 0 01-13.225-.055V9.467c0-.285.033-.567.096-.842h.262zM4.987 4.5a.75.75 0 00-.648.372L3.025 7.125h11.95l-1.313-2.253a.75.75 0 00-.648-.372H4.987z" clip-rule="evenodd"></path></g><defs><clippath id="clip0_966_244914"><path d="M0 0h18v18H0z"></path></clippath></defs></g></symbol>
<symbol id="flash" xmlns:xlink="http://www.w3.org/1999/xlink" xmlns="http://www.w3.org/2000/svg" width="20" height="20" style="width: 24px; height: 24px; fill:#0c0c0c"><defs><symbol id="chevronLeft" xmlns="http://www.w3.org/2000/svg" viewBox="0 0 24 24"><path d="M11.414 12l4.293 4.293-1.414 1.414-5-5a1 1 0 010-1.414l5-5 1.414 1.414L11.414 12z"></path></symbol></defs><g><path d="M11.414 12l4.293 4.293-1.414 1.414-5-5a1 1 0 010-1.414l5-5 1.414 1.414L11.414 12z"></path></g></symbol>
<symbol id="local" xmlns:xlink="http://www.w3.org/1999/xlink" xmlns="http://www.w3.org/2000/svg" style="width: 18px; height: 18px;" width="24" height="24"><defs><symbol id="nativeBusiness" xmlns="http://www.w3.org/2000/svg" viewBox="0 0 24 24"><path d="M15.5 1v3l-3 3V4l3-3zM11.5 9v2.984L8.5 9v3l3 3v8.005L7 23l-.5-1C8 22 9 21.395 9 20c0-1.6-1.12-2.72-2.464-4.064C4.52 13.92 2 11.4 2 6h6.5l3 3zM12.5 9v2.984L15.5 9v3l-3 3v8.005L17 23l.5-1C16 22 15 20.895 15 19.5c0-1.6 1.12-2.64 2.464-3.888C19.48 13.74 22 11.4 22 6h-6.5l-3 3zM8.5 4V1l3 3v3l-3-3z"></path></symbol></defs><g><path d="M15.5 1v3l-3 3V4l3-3zM11.5 9v2.984L8.5 9v3l3 3v8.005L7 23l-.5-1C8 22 9 21.395 9 20c0-1.6-1.12-2.72-2.464-4.064C4.52 13.92 2 11.4 2 6h6.5l3 3zM12.5 9v2.984L15.5 9v3l-3 3v8.005L17 23l.5-1C16 22 15 20.895 15 19.5c0-1.6 1.12-2.64 2.464-3.888C19.48 13.74 22 11.4 22 6h-6.5l-3 3zM8.5 4V1l3 3v3l-3-3z"></path></g></symbol>
<symbol id="digital" xmlns:xlink="http://www.w3.org/1999/xlink" xmlns="http://www.w3.org/2000/svg" style="width: 18px; height: 18px;" width="24" height="24"><defs><symbol id="electronic" xmlns="http://www.w3.org/2000/svg" viewBox="0 0 24 24"><path fill-rule="evenodd" d="M4 5a1 1 0 011-1h14a1 1 0 011 1v8.723l2.858 4.762A1 1 0 0122 20H2a1 1 0 01-.857-1.515L4 13.723V5zm2 8h12V6H6v7zm-.434 2l-1.8 3h16.468l-1.8-3H5.566z" clip-rule="evenodd"></path></symbol></defs><g><path fill-rule="evenodd" d="M4 5a1 1 0 011-1h14a1 1 0 011 1v8.723l2.858 4.762A1 1 0 0122 20H2a1 1 0 01-.857-1.515L4 13.723V5zm2 8h12V6H6v7zm-.434 2l-1.8 3h16.468l-1.8-3H5.566z" clip-rule="evenodd"></path></g></symbol>
<symbol id="kitchen" xmlns:xlink="http://www.w3.org/1999/xlink" xmlns="http://www.w3.org/2000/svg" style="width: 18px; height: 18px;" width="24" height="24"><defs><symbol id="homeKitchen" xmlns="http://www.w3.org/2000/svg" viewBox="0 0 24 24"><path fill-rule="evenodd" d="M7 3h10c1.56 0 2.898 1.066 2.994 2.5l.006.167v2.869a3.5 3.5 0 011.001 6.627L21 18a2 2 0 01-2 2v1h-2v-1H7v1H5v-1a2 2 0 01-2-2v-2.837a3.5 3.5 0 011-6.628V5.667c0-1.461 1.28-2.581 2.821-2.662L7 3zm1 11h8v-2l.005-.192A3.501 3.501 0 0118 8.837v-3.17c0-.3-.35-.614-.867-.661L17 5H7c-.543 0-.936.292-.993.592L6 5.667l.001 3.17A3.5 3.5 0 018 12v2zm-5-2a1.5 1.5 0 013 0v3a1 1 0 001 1h10a1 1 0 001-1v-3l.007-.145A1.5 1.5 0 0121 12l-.007.145A1.5 1.5 0 0119.5 13.5H19V18H5v-4.5h-.5A1.5 1.5 0 013 12z" clip-rule="evenodd"></path></symbol></defs><g><path fill-rule="evenodd" d="M7 3h10c1.56 0 2.898 1.066 2.994 2.5l.006.167v2.869a3.5 3.5 0 011.001 6.627L21 18a2 2 0 01-2 2v1h-2v-1H7v1H5v-1a2 2 0 01-2-2v-2.837a3.5 3.5 0 011-6.628V5.667c0-1.461 1.28-2.581 2.821-2.662L7 3zm1 11h8v-2l.005-.192A3.501 3.501 0 0118 8.837v-3.17c0-.3-.35-.614-.867-.661L17 5H7c-.543 0-.936.292-.993.592L6 5.667l.001 3.17A3.5 3.5 0 018 12v2zm-5-2a1.5 1.5 0 013 0v3a1 1 0 001 1h10a1 1 0 001-1v-3l.007-.145A1.5 1.5 0 0121 12l-.007.145A1.5 1.5 0 0119.5 13.5H19V18H5v-4.5h-.5A1.5 1.5 0 013 12z" clip-rule="evenodd"></path></g></symbol>
<symbol id="homestuff" xmlns:xlink="http://www.w3.org/1999/xlink" xmlns="http://www.w3.org/2000/svg" style="width: 18px; height: 18px;" width="24" height="25"><defs><symbol id="catHomeElectronic" xmlns="http://www.w3.org/2000/svg" viewBox="0 0 24 25"><path d="M5.738 5.989v2.99h-1.5V5.99h1.5zM5.738 12.968v2.991h-1.5v-2.991h1.5zM18.806 20.793a.877.877 0 11-1.754 0 .877.877 0 011.754 0z"></path><path fill-rule="evenodd" d="M15.571 7.711V1.95a.95.95 0 00-.95-.95H1.95a.95.95 0 00-.95.95V24h22v-3.414c0-.926-.42-1.753-1.078-2.304l.89-10.57h-3.72v-1h-2.5v1h-1.02zM3 3v7.253h7.13V9.71a2 2 0 012-2h1.441V3H3zm9.684 19v-1.414c0-1.001.49-1.888 1.243-2.433l-.212-2.516h-1.584a2 2 0 01-2-2v-1.884H3V22h9.684zm.532-12.291H12.13v3.928h1.416l-.331-3.928zm2.468 9.877H20a1 1 0 011 1V22h-6.316v-1.414a1 1 0 011-1zm-.46-9.875l.662 7.867h1.294v-.869h-.69v-1.5h2.875v1.5h-.685v.869h1.294l.663-7.867h-5.414z" clip-rule="evenodd"></path></symbol></defs><g><path d="M5.738 5.989v2.99h-1.5V5.99h1.5zM5.738 12.968v2.991h-1.5v-2.991h1.5zM18.806 20.793a.877.877 0 11-1.754 0 .877.877 0 011.754 0z"></path><path fill-rule="evenodd" d="M15.571 7.711V1.95a.95.95 0 00-.95-.95H1.95a.95.95 0 00-.95.95V24h22v-3.414c0-.926-.42-1.753-1.078-2.304l.89-10.57h-3.72v-1h-2.5v1h-1.02zM3 3v7.253h7.13V9.71a2 2 0 012-2h1.441V3H3zm9.684 19v-1.414c0-1.001.49-1.888 1.243-2.433l-.212-2.516h-1.584a2 2 0 01-2-2v-1.884H3V22h9.684zm.532-12.291H12.13v3.928h1.416l-.331-3.928zm2.468 9.877H20a1 1 0 011 1V22h-6.316v-1.414a1 1 0 011-1zm-.46-9.875l.662 7.867h1.294v-.869h-.69v-1.5h2.875v1.5h-.685v.869h1.294l.663-7.867h-5.414z" clip-rule="evenodd"></path></g></symbol>
<symbol id="make-up" xmlns:xlink="http://www.w3.org/1999/xlink" xmlns="http://www.w3.org/2000/svg" style="width: 18px; height: 18px;" width="24" height="24"><defs><symbol id="beauty" xmlns="http://www.w3.org/2000/svg" viewBox="0 0 24 24"><path fill-rule="evenodd" d="M16.05 3.25c3.277 0 5.95 2.568 5.95 5.757a5.622 5.622 0 01-1.32 3.616c-.63.755-3.262 3.505-7.964 8.325a1 1 0 01-1.434-.002c-4.639-4.784-7.247-7.506-7.87-8.215A5.627 5.627 0 012 9.007C2 5.818 4.673 3.25 7.95 3.25c1.53 0 2.967.564 4.05 1.539a6.048 6.048 0 014.05-1.539zm3.095 8.091c.552-.66.855-1.475.855-2.334 0-2.066-1.76-3.757-3.95-3.757-1.312 0-2.51.611-3.243 1.612a1 1 0 01-1.614 0C10.46 5.861 9.261 5.25 7.95 5.25 5.76 5.25 4 6.941 4 9.007c0 .891.326 1.733.916 2.405.557.635 2.932 3.117 7.086 7.403 4.194-4.304 6.594-6.817 7.143-7.474zm-10.352.452a1 1 0 011.414 0L12 13.586l4.793-4.793a1 1 0 111.414 1.414l-5.5 5.5a1 1 0 01-1.414 0l-2.5-2.5a1 1 0 010-1.414z" clip-rule="evenodd"></path></symbol></defs><g><path fill-rule="evenodd" d="M16.05 3.25c3.277 0 5.95 2.568 5.95 5.757a5.622 5.622 0 01-1.32 3.616c-.63.755-3.262 3.505-7.964 8.325a1 1 0 01-1.434-.002c-4.639-4.784-7.247-7.506-7.87-8.215A5.627 5.627 0 012 9.007C2 5.818 4.673 3.25 7.95 3.25c1.53 0 2.967.564 4.05 1.539a6.048 6.048 0 014.05-1.539zm3.095 8.091c.552-.66.855-1.475.855-2.334 0-2.066-1.76-3.757-3.95-3.757-1.312 0-2.51.611-3.243 1.612a1 1 0 01-1.614 0C10.46 5.861 9.261 5.25 7.95 5.25 5.76 5.25 4 6.941 4 9.007c0 .891.326 1.733.916 2.405.557.635 2.932 3.117 7.086 7.403 4.194-4.304 6.594-6.817 7.143-7.474zm-10.352.452a1 1 0 011.414 0L12 13.586l4.793-4.793a1 1 0 111.414 1.414l-5.5 5.5a1 1 0 01-1.414 0l-2.5-2.5a1 1 0 010-1.414z" clip-rule="evenodd"></path></g></symbol>
<symbol id="tools" xmlns:xlink="http://www.w3.org/1999/xlink" xmlns="http://www.w3.org/2000/svg" style="width: 18px; height: 18px;" width="24" height="24"><defs><symbol id="tools" xmlns="http://www.w3.org/2000/svg" viewBox="0 0 24 24"><path fill-rule="evenodd" d="M21.207 16.793l-6.833-6.834A6.502 6.502 0 004.975 2.42 1 1 0 004.755 4l3.036 3.036a.5.5 0 11-.707.707L4.05 4.708a1 1 0 00-1.58.219 6.502 6.502 0 007.464 9.42l6.86 6.86a3.121 3.121 0 104.414-4.414zm-11.38-4.52A4.5 4.5 0 013.73 7.217l1.94 1.94a2.5 2.5 0 003.536-3.536l-1.94-1.94a4.503 4.503 0 015.032 6.152 1 1 0 00.215 1.093l7.28 7.28a1.121 1.121 0 01-1.586 1.586l-7.3-7.3a1 1 0 00-1.08-.22z" clip-rule="evenodd"></path></symbol></defs><g><path fill-rule="evenodd" d="M21.207 16.793l-6.833-6.834A6.502 6.502 0 004.975 2.42 1 1 0 004.755 4l3.036 3.036a.5.5 0 11-.707.707L4.05 4.708a1 1 0 00-1.58.219 6.502 6.502 0 007.464 9.42l6.86 6.86a3.121 3.121 0 104.414-4.414zm-11.38-4.52A4.5 4.5 0 013.73 7.217l1.94 1.94a2.5 2.5 0 003.536-3.536l-1.94-1.94a4.503 4.503 0 015.032 6.152 1 1 0 00.215 1.093l7.28 7.28a1.121 1.121 0 01-1.586 1.586l-7.3-7.3a1 1 0 00-1.08-.22z" clip-rule="evenodd"></path></g></symbol>
<symbol id="cloths" xmlns:xlink="http://www.w3.org/1999/xlink" xmlns="http://www.w3.org/2000/svg" style="width: 18px; height: 18px;" width="24" height="24"><defs><symbol id="fashion" xmlns="http://www.w3.org/2000/svg" viewBox="0 0 24 24"><path fill-rule="evenodd" d="M4.317 12.449L6 11.887V20a1 1 0 001 1h10a1 1 0 001-1v-8.113l1.684.562a1 1 0 001.23-.543l2-4.5a1 1 0 00-.542-1.334l-5-2A1 1 0 0017 4h-2a1 1 0 00-.993.883l-.011.273C13.93 6.234 13.196 7 12 7c-1.253 0-2-.84-2-2a1 1 0 00-1-1H7a1 1 0 00-.371.072l-5 2a1 1 0 00-.543 1.334l2 4.5a1 1 0 001.23.543zm-.981-4.906L7.193 6h.92l.05.19C8.622 7.821 10.038 9 12 9c2.037 0 3.485-1.271 3.887-3h.92l3.858 1.543-1.21 2.721-2.138-.713A1 1 0 0016 10.5V19H8v-8.5a1 1 0 00-1.316-.949l-2.139.713-1.21-2.721z" clip-rule="evenodd"></path></symbol></defs><g><path fill-rule="evenodd" d="M4.317 12.449L6 11.887V20a1 1 0 001 1h10a1 1 0 001-1v-8.113l1.684.562a1 1 0 001.23-.543l2-4.5a1 1 0 00-.542-1.334l-5-2A1 1 0 0017 4h-2a1 1 0 00-.993.883l-.011.273C13.93 6.234 13.196 7 12 7c-1.253 0-2-.84-2-2a1 1 0 00-1-1H7a1 1 0 00-.371.072l-5 2a1 1 0 00-.543 1.334l2 4.5a1 1 0 001.23.543zm-.981-4.906L7.193 6h.92l.05.19C8.622 7.821 10.038 9 12 9c2.037 0 3.485-1.271 3.887-3h.92l3.858 1.543-1.21 2.721-2.138-.713A1 1 0 0016 10.5V19H8v-8.5a1 1 0 00-1.316-.949l-2.139.713-1.21-2.721z" clip-rule="evenodd"></path></g></symbol>
<symbol id="gold" xmlns:xlink="http://www.w3.org/1999/xlink" xmlns="http://www.w3.org/2000/svg" style="width: 18px; height: 18px;" width="24" height="24"><defs><symbol id="catJewelry" xmlns="http://www.w3.org/2000/svg" viewBox="0 0 24 24"><path d="M15.785 0c.557 0 1.009.448 1.009 1v3l4.411 3.33c.552.417.85 1.086.787 1.772l-.232 2.523c-.423 4.614-3.123 8.721-7.21 10.971l-2.068 1.139a1 1 0 01-.964 0L9.45 22.596a13.995 13.995 0 01-7.21-10.971l-.232-2.523a1.99 1.99 0 01.787-1.772L7.206 4V1c0-.552.452-1 1.009-1zm2.697 7.788a7.062 7.062 0 01-5.323 4.118l1.768 2.559c.294.426.294.987 0 1.413l-1.886 2.729a1.268 1.268 0 01-2.082 0l-1.886-2.729a1.242 1.242 0 010-1.413l1.768-2.559a7.06 7.06 0 01-5.323-4.118l-1.5 1.133.232 2.523a11.996 11.996 0 006.18 9.404l1.088.599a1 1 0 00.964 0l1.088-.599a11.996 11.996 0 006.18-9.404l.231-2.523zM12 13.77l-.969 1.402.969 1.401.969-1.401L12 13.77zM14.775 2H9.224v2.493a1 1 0 01-.398.798L7.191 6.525C7.841 8.541 9.749 10 11.999 10s4.157-1.459 4.808-3.475l-1.635-1.234a1.002 1.002 0 01-.398-.798V2z"></path></symbol></defs><g><path d="M15.785 0c.557 0 1.009.448 1.009 1v3l4.411 3.33c.552.417.85 1.086.787 1.772l-.232 2.523c-.423 4.614-3.123 8.721-7.21 10.971l-2.068 1.139a1 1 0 01-.964 0L9.45 22.596a13.995 13.995 0 01-7.21-10.971l-.232-2.523a1.99 1.99 0 01.787-1.772L7.206 4V1c0-.552.452-1 1.009-1zm2.697 7.788a7.062 7.062 0 01-5.323 4.118l1.768 2.559c.294.426.294.987 0 1.413l-1.886 2.729a1.268 1.268 0 01-2.082 0l-1.886-2.729a1.242 1.242 0 010-1.413l1.768-2.559a7.06 7.06 0 01-5.323-4.118l-1.5 1.133.232 2.523a11.996 11.996 0 006.18 9.404l1.088.599a1 1 0 00.964 0l1.088-.599a11.996 11.996 0 006.18-9.404l.231-2.523zM12 13.77l-.969 1.402.969 1.401.969-1.401L12 13.77zM14.775 2H9.224v2.493a1 1 0 01-.398.798L7.191 6.525C7.841 8.541 9.749 10 11.999 10s4.157-1.459 4.808-3.475l-1.635-1.234a1.002 1.002 0 01-.398-.798V2z"></path></g></symbol>
<symbol id="health-tools" xmlns:xlink="http://www.w3.org/1999/xlink" xmlns="http://www.w3.org/2000/svg" style="width: 18px; height: 18px;" width="24" height="24"><defs><symbol id="catHealth" xmlns="http://www.w3.org/2000/svg" viewBox="0 0 24 24"><path d="M20.999 4.017a2 2 0 012 2v14.984a2 2 0 01-2 2H3.001a2 2 0 01-2-2V9.273a2 2 0 012-2H9.84V6.017a2 2 0 012-2h9.159zm-9.408 5.256h-8.59v11.728h8.59V9.273zm9.408-3.256H11.84v1.271a2 2 0 011.751 1.985v3.229h1.932v-2.25h1.5v2.25h2.25v1.5h-2.25v2.25h-1.5v-2.25h-1.932v7h7.408V6.018zm-10.66 12.219v1.5H4.252v-1.5h6.087zm-1.044-7.93c.69 0 1.25.56 1.25 1.25v4.264c0 .69-.56 1.25-1.25 1.25H5.297c-.69 0-1.25-.56-1.25-1.25v-4.264c0-.69.56-1.25 1.25-1.25zm-.25 1.5H5.547v3.764h3.498v-3.764zM20.919.999v2h-9v-2h9z"></path></symbol></defs><g><path d="M20.999 4.017a2 2 0 012 2v14.984a2 2 0 01-2 2H3.001a2 2 0 01-2-2V9.273a2 2 0 012-2H9.84V6.017a2 2 0 012-2h9.159zm-9.408 5.256h-8.59v11.728h8.59V9.273zm9.408-3.256H11.84v1.271a2 2 0 011.751 1.985v3.229h1.932v-2.25h1.5v2.25h2.25v1.5h-2.25v2.25h-1.5v-2.25h-1.932v7h7.408V6.018zm-10.66 12.219v1.5H4.252v-1.5h6.087zm-1.044-7.93c.69 0 1.25.56 1.25 1.25v4.264c0 .69-.56 1.25-1.25 1.25H5.297c-.69 0-1.25-.56-1.25-1.25v-4.264c0-.69.56-1.25 1.25-1.25zm-.25 1.5H5.547v3.764h3.498v-3.764zM20.919.999v2h-9v-2h9z"></path></g></symbol>
<symbol id="book" xmlns:xlink="http://www.w3.org/1999/xlink" xmlns="http://www.w3.org/2000/svg" style="width: 18px; height: 18px;" width="24" height="24"><defs><symbol id="bookStationary" xmlns="http://www.w3.org/2000/svg" viewBox="0 0 24 24"><path fill-rule="evenodd" d="M6.293 6.793L5 8.086 3.414 6.5 6.5 3.414 11.086 8 8 11.086 6.414 9.5l1.293-1.293a1 1 0 00-1.414-1.414zm-5 .414L6.586 12.5l-3.28 3.28a.994.994 0 00-.275.474l-1.496 5.483a1 1 0 001.228 1.228l5.483-1.496a.993.993 0 00.474-.274l3.28-3.28 5.293 5.292a1 1 0 001.414 0l4.5-4.5a1 1 0 000-1.414L17.914 12l3.879-3.879a3 3 0 000-4.242L20.62 2.707a3 3 0 00-4.242 0L12.5 6.586 7.207 1.293a1 1 0 00-1.414 0l-4.5 4.5a1 1 0 000 1.414zM6.074 19.99l-1.563-1.563-.586 2.149 2.15-.586zM15.5 6.414L18.086 9 8 19.086 5.414 16.5 15.5 6.414zm4 1.172L16.914 5l.879-.879a1 1 0 011.414 0l1.172 1.172a1 1 0 010 1.414l-.879.879zm-4.5 10.5L13.414 16.5l3.086-3.086L21.086 18 18 21.086 16.414 19.5l1.293-1.293a1 1 0 00-1.414-1.414L15 18.086z" clip-rule="evenodd"></path></symbol></defs><g><path fill-rule="evenodd" d="M6.293 6.793L5 8.086 3.414 6.5 6.5 3.414 11.086 8 8 11.086 6.414 9.5l1.293-1.293a1 1 0 00-1.414-1.414zm-5 .414L6.586 12.5l-3.28 3.28a.994.994 0 00-.275.474l-1.496 5.483a1 1 0 001.228 1.228l5.483-1.496a.993.993 0 00.474-.274l3.28-3.28 5.293 5.292a1 1 0 001.414 0l4.5-4.5a1 1 0 000-1.414L17.914 12l3.879-3.879a3 3 0 000-4.242L20.62 2.707a3 3 0 00-4.242 0L12.5 6.586 7.207 1.293a1 1 0 00-1.414 0l-4.5 4.5a1 1 0 000 1.414zM6.074 19.99l-1.563-1.563-.586 2.149 2.15-.586zM15.5 6.414L18.086 9 8 19.086 5.414 16.5 15.5 6.414zm4 1.172L16.914 5l.879-.879a1 1 0 011.414 0l1.172 1.172a1 1 0 010 1.414l-.879.879zm-4.5 10.5L13.414 16.5l3.086-3.086L21.086 18 18 21.086 16.414 19.5l1.293-1.293a1 1 0 00-1.414-1.414L15 18.086z" clip-rule="evenodd"></path></g></symbol>
<symbol id="sport" xmlns:xlink="http://www.w3.org/1999/xlink" xmlns="http://www.w3.org/2000/svg" style="width: 18px; height: 18px;" width="24" height="24"><defs><symbol id="sportOutdoor" xmlns="http://www.w3.org/2000/svg" viewBox="0 0 24 24"><path fill-rule="evenodd" d="M12 5.197l1.168-1.752a1 1 0 111.664 1.11L13.202 7l7.63 11.445c.022.034.042.068.06.103.628.148 1.255.311 1.883.49a1 1 0 11-.55 1.924C18.814 19.986 15.406 19.5 12 19.5c-3.406 0-6.814.487-10.225 1.462a1 1 0 01-.55-1.924c.628-.179 1.255-.342 1.883-.49.018-.035.038-.07.06-.103L10.798 7l-1.63-2.445a1 1 0 111.664-1.11L12 5.197zm-6.13 12.8c.897-.145 1.794-.259 2.69-.34.024-.064.054-.127.092-.187l2.5-4a1 1 0 011.696 0l2.5 4c.038.06.068.123.091.187.898.081 1.794.195 2.691.34L12 8.804l-6.13 9.195zm7.147-.483L12 15.887l-1.017 1.627a37.471 37.471 0 012.034 0z" clip-rule="evenodd"></path></symbol></defs><g><path fill-rule="evenodd" d="M12 5.197l1.168-1.752a1 1 0 111.664 1.11L13.202 7l7.63 11.445c.022.034.042.068.06.103.628.148 1.255.311 1.883.49a1 1 0 11-.55 1.924C18.814 19.986 15.406 19.5 12 19.5c-3.406 0-6.814.487-10.225 1.462a1 1 0 01-.55-1.924c.628-.179 1.255-.342 1.883-.49.018-.035.038-.07.06-.103L10.798 7l-1.63-2.445a1 1 0 111.664-1.11L12 5.197zm-6.13 12.8c.897-.145 1.794-.259 2.69-.34.024-.064.054-.127.092-.187l2.5-4a1 1 0 011.696 0l2.5 4c.038.06.068.123.091.187.898.081 1.794.195 2.691.34L12 8.804l-6.13 9.195zm7.147-.483L12 15.887l-1.017 1.627a37.471 37.471 0 012.034 0z" clip-rule="evenodd"></path></g></symbol>
<symbol id="card" xmlns:xlink="http://www.w3.org/1999/xlink" xmlns="http://www.w3.org/2000/svg" style="width: 18px; height: 18px;" width="18" height="18"><defs><symbol id="giftCard" xmlns="http://www.w3.org/2000/svg" viewBox="0 0 18 18"><path d="M11.25 10.5H15V12h-3.75v-1.5z"></path><path fill-rule="evenodd" d="M3 3h12a2.25 2.25 0 012.25 2.25v7.5A2.25 2.25 0 0115 15H3a2.25 2.25 0 01-2.25-2.25v-7.5A2.25 2.25 0 013 3zm0 1.5a.75.75 0 00-.75.75v7.5c0 .414.336.75.75.75h3v-2.69l-.97.97-1.06-1.06.988-.989A2.25 2.25 0 116 5.378V4.5H3zm3 3.75V7.5a.75.75 0 10-.75.75H6zm1.5-2.872V4.5H15a.75.75 0 01.75.75v7.5a.75.75 0 01-.75.75H7.5v-2.69l.97.97 1.06-1.06-.988-.989A2.25 2.25 0 107.5 5.378zm0 2.872h.75a.75.75 0 10-.75-.75v.75z" clip-rule="evenodd"></path></symbol></defs><g><path d="M11.25 10.5H15V12h-3.75v-1.5z"></path><path fill-rule="evenodd" d="M3 3h12a2.25 2.25 0 012.25 2.25v7.5A2.25 2.25 0 0115 15H3a2.25 2.25 0 01-2.25-2.25v-7.5A2.25 2.25 0 013 3zm0 1.5a.75.75 0 00-.75.75v7.5c0 .414.336.75.75.75h3v-2.69l-.97.97-1.06-1.06.988-.989A2.25 2.25 0 116 5.378V4.5H3zm3 3.75V7.5a.75.75 0 10-.75.75H6zm1.5-2.872V4.5H15a.75.75 0 01.75.75v7.5a.75.75 0 01-.75.75H7.5v-2.69l.97.97 1.06-1.06-.988-.989A2.25 2.25 0 107.5 5.378zm0 2.872h.75a.75.75 0 10-.75-.75v.75z" clip-rule="evenodd"></path></g></symbol>
<symbol id="supermarket" xmlns:xlink="http://www.w3.org/1999/xlink" xmlns="http://www.w3.org/2000/svg" style="width: 18px; height: 18px;" width="24" height="24"><defs><symbol id="fresh" xmlns="http://www.w3.org/2000/svg" viewBox="0 0 24 24"><path fill-rule="evenodd" d="M18 4a2 2 0 00-2-2h-3a2 2 0 00-2 2v1.535a4.007 4.007 0 00-1.874 2.467A5.108 5.108 0 009 8l-.217.005A5 5 0 004 13H3a1 1 0 00-.99 1.141l1 7A1 1 0 004 22h16a1 1 0 00.99-.859l1-7A1 1 0 0021 13h-1V9l-.007-.232a4 4 0 00-1.992-3.232L18 4zM4.867 20l-.714-5h15.694l-.714 5H4.867zM16 7h-3a2 2 0 00-1.924 1.45 5.003 5.003 0 012.919 4.318L14 13h4V9a2 2 0 00-1.85-1.995L16 7zm-9.995 5.824A3 3 0 0112 13H6l.005-.176zM16 4h-3v1h3V4zm-1 14v-2H9v2h6z" clip-rule="evenodd"></path></symbol></defs><g><path fill-rule="evenodd" d="M18 4a2 2 0 00-2-2h-3a2 2 0 00-2 2v1.535a4.007 4.007 0 00-1.874 2.467A5.108 5.108 0 009 8l-.217.005A5 5 0 004 13H3a1 1 0 00-.99 1.141l1 7A1 1 0 004 22h16a1 1 0 00.99-.859l1-7A1 1 0 0021 13h-1V9l-.007-.232a4 4 0 00-1.992-3.232L18 4zM4.867 20l-.714-5h15.694l-.714 5H4.867zM16 7h-3a2 2 0 00-1.924 1.45 5.003 5.003 0 012.919 4.318L14 13h4V9a2 2 0 00-1.85-1.995L16 7zm-9.995 5.824A3 3 0 0112 13H6l.005-.176zM16 4h-3v1h3V4zm-1 14v-2H9v2h6z" clip-rule="evenodd"></path></g></symbol>
<symbol id="toy" xmlns:xlink="http://www.w3.org/1999/xlink" xmlns="http://www.w3.org/2000/svg" style="width: 18px; height: 18px;" width="24" height="24"><defs><symbol id="kidsToy" xmlns="http://www.w3.org/2000/svg" viewBox="0 0 24 24"><path fill-rule="evenodd" d="M11.817 4.5a3.5 3.5 0 103.5-3.5 1 1 0 100 2 1.5 1.5 0 11-1.5 1.5 1 1 0 10-2 0zM1 14.5A3.5 3.5 0 004.5 18h.015A8.993 8.993 0 0012 22a8.993 8.993 0 007.485-4h.015a3.5 3.5 0 001.332-6.738 8.954 8.954 0 00-1.4-3.339 1 1 0 10-1.65 1.13 6.955 6.955 0 011.168 3.105 1 1 0 00.817.866 1.5 1.5 0 11-.59 2.941 1 1 0 00-1.084.484A6.996 6.996 0 0112 20a6.996 6.996 0 01-6.093-3.551 1 1 0 00-1.084-.484 1.5 1.5 0 11-.59-2.942 1 1 0 00.817-.865A7.008 7.008 0 019.807 6.35a1 1 0 00-.626-1.9 9.012 9.012 0 00-6.013 6.812A3.502 3.502 0 001 14.5zm10-4a1.5 1.5 0 11-3 0 1.5 1.5 0 013 0zm3.5 1.5a1.5 1.5 0 100-3 1.5 1.5 0 000 3zM12 18a4.997 4.997 0 01-4.307-2.459 1 1 0 011.722-1.017A2.997 2.997 0 0012 16a2.998 2.998 0 002.59-1.485 1 1 0 011.725 1.012A4.997 4.997 0 0112 18z" clip-rule="evenodd"></path></symbol></defs><g><path fill-rule="evenodd" d="M11.817 4.5a3.5 3.5 0 103.5-3.5 1 1 0 100 2 1.5 1.5 0 11-1.5 1.5 1 1 0 10-2 0zM1 14.5A3.5 3.5 0 004.5 18h.015A8.993 8.993 0 0012 22a8.993 8.993 0 007.485-4h.015a3.5 3.5 0 001.332-6.738 8.954 8.954 0 00-1.4-3.339 1 1 0 10-1.65 1.13 6.955 6.955 0 011.168 3.105 1 1 0 00.817.866 1.5 1.5 0 11-.59 2.941 1 1 0 00-1.084.484A6.996 6.996 0 0112 20a6.996 6.996 0 01-6.093-3.551 1 1 0 00-1.084-.484 1.5 1.5 0 11-.59-2.942 1 1 0 00.817-.865A7.008 7.008 0 019.807 6.35a1 1 0 00-.626-1.9 9.012 9.012 0 00-6.013 6.812A3.502 3.502 0 001 14.5zm10-4a1.5 1.5 0 11-3 0 1.5 1.5 0 013 0zm3.5 1.5a1.5 1.5 0 100-3 1.5 1.5 0 000 3zM12 18a4.997 4.997 0 01-4.307-2.459 1 1 0 011.722-1.017A2.997 2.997 0 0012 16a2.998 2.998 0 002.59-1.485 1 1 0 011.725 1.012A4.997 4.997 0 0112 18z" clip-rule="evenodd"></path></g></symbol>
<symbol id="peykan" xmlns:xlink="http://www.w3.org/1999/xlink" xmlns="http://www.w3.org/2000/svg" width="20" height="20" style="width: 24px; height: 24px;"><defs><symbol id="chevronLeft" xmlns="http://www.w3.org/2000/svg" viewBox="0 0 24 24"><path d="M11.414 12l4.293 4.293-1.414 1.414-5-5a1 1 0 010-1.414l5-5 1.414 1.414L11.414 12z"></path></symbol></defs><g><path d="M11.414 12l4.293 4.293-1.414 1.414-5-5a1 1 0 010-1.414l5-5 1.414 1.414L11.414 12z"></path></g></symbol>
<symbol id="erfan" xmlns:xlink="http://www.w3.org/1999/xlink" xmlns="http://www.w3.org/2000/svg" style="width: 16px; height: 16px;" width="24" height="24"><defs><symbol id="chevronLeft" xmlns="http://www.w3.org/2000/svg" viewBox="0 0 24 24"><path d="M11.414 12l4.293 4.293-1.414 1.414-5-5a1 1 0 010-1.414l5-5 1.414 1.414L11.414 12z"></path></symbol></defs><g><path d="M11.414 12l4.293 4.293-1.414 1.414-5-5a1 1 0 010-1.414l5-5 1.414 1.414L11.414 12z"></path></g></symbol>
</svg>
