<?xml version="1.0" encoding="UTF-8" standalone="no"?> <svg width="512" height="512" viewBox="0 0 512 512" fill="none" xmlns="http://www.w3.org/2000/svg">
<path d="M448 16H371.8C361.3 16 352 22.7 348.6 32.6L316.1 128H197C189.8 128 184 133.8 184 141V240V324.7L73.8001 434.9L56.8001 451.9C53.7001 455 53.7001 460.1 56.8001 463.2C78.0001 484.3 106.1 496 136 496C153 496 169.3 492.3 184.2 485.2C184.2 485.4 184.2 485.5 184.3 485.7C185.5 491.6 190.8 496.1 197 496.1H363C369.3 496.1 374.5 491.6 375.7 485.7C375.9 484.9 376 484 376 483.1V456.1V240V141C376 133.8 370.2 128 363 128H333L363.8 37.8C365 34.3 368.2 32 371.9 32H448C452.4 32 456 28.4 456 24C456 19.6 452.4 16 448 16ZM310.6 144L280.6 232H200V144H310.6ZM360 448H227.9C240.9 429.4 248 407.2 248 384C248 354.1 236.4 326 215.2 304.8C212.1 301.7 207 301.7 203.9 304.8L200 308.7V248H286.3H360V448ZM144 403.3L180.9 440.2C170.3 448.7 157.5 454 144 455.5V403.3ZM192.2 428.9L155.3 392H207.5C206.1 405.6 200.8 418.3 192.2 428.9ZM155.3 376L192.2 339.1C200.7 349.7 206 362.5 207.5 376H155.3ZM128 403.3V455.5C114.4 454 101.7 448.8 91.1001 440.2L128 403.3ZM74.0001 457.3L79.7001 451.6C95.5001 464.8 115.2 472 136 472C159.5 472 181.6 462.8 198.2 446.2C230.6 413.8 232.4 362.2 203.6 327.7L209.3 322C224 339.3 232 361 232 384C232 408.9 222.6 432.4 205.4 450.3C204.9 450.8 204.4 451.3 203.9 451.8C199 456.7 193.7 461 188 464.7C187.8 464.8 187.6 465 187.4 465.1C172.2 474.8 154.5 479.9 136.1 479.9C113 480 91.3001 472 74.0001 457.3ZM360 480H200V475.9C205.1 472.4 209.9 468.4 214.4 464H360V480ZM360 144V232H297.5L327.5 144H360Z" fill="black"/>
<path d="M336 384C340.4 384 344 380.4 344 376V272C344 267.6 340.4 264 336 264C331.6 264 328 267.6 328 272V376C328 380.4 331.6 384 336 384Z" fill="black"/>
<path d="M336 432C340.4 432 344 428.4 344 424V408C344 403.6 340.4 400 336 400C331.6 400 328 403.6 328 408V424C328 428.4 331.6 432 336 432Z" fill="black"/>
</svg>
