<?xml version="1.0" encoding="UTF-8" standalone="no"?> <svg xmlns="http://www.w3.org/2000/svg" viewBox="0 0 512 512"><defs><style>.cls-1{font-size:64px;font-family:DBHelvethaicaX-MedCond, DBHelvethaicaX MedCond;}.cls-2{letter-spacing:-0.03em;}</style></defs><g id="text"><text class="cls-1" transform="translate(47.3 565.44)">CHINESE FOO<tspan class="cls-2" x="363.71" y="0">D</tspan><tspan x="404.15" y="0">, </tspan></text></g><g id="solid"><path d="M216,64a8,8,0,0,0-16,0V280h16Z"/><rect x="168" y="104" width="16" height="8"/><polygon points="184 85.05 184 76.97 168.81 79.06 169.9 86.98 184 85.05"/><path d="M296,69.63,479,44.46l-1.09-7.93-182,25q.12,1.2.12,2.43Z"/><path d="M280,64a8,8,0,0,0-16,0V280h16Z"/><path d="M248,64a8,8,0,0,0-16,0V280h16Z"/><path d="M184,232.67a48.43,48.43,0,0,0-8-.67,48,48,0,0,0-48,48h56Z"/><path d="M256,296H32v13.87A122.27,122.27,0,0,0,154.13,432H293.87A122.27,122.27,0,0,0,416,309.87V296H256Z"/><rect x="296" y="104" width="184" height="8"/><path d="M96,248a31.83,31.83,0,0,1,20.77,7.69,63.18,63.18,0,0,1,8-14.09A48,48,0,0,0,48,280H64A32,32,0,0,1,96,248Z"/><polygon points="154.13 448 152 448 152 480 296 480 296 448 293.87 448 154.13 448"/><path d="M80,280h32a16,16,0,0,0-32,0Z"/></g></svg>