<?xml version="1.0" encoding="iso-8859-1"?>
<!-- Generator: Adobe Illustrator 16.0.0, SVG Export Plug-In . SVG Version: 6.00 Build 0)  -->
<!DOCTYPE svg PUBLIC "-//W3C//DTD SVG 1.1//EN" "http://www.w3.org/Graphics/SVG/1.1/DTD/svg11.dtd">
<svg version="1.1" xmlns="http://www.w3.org/2000/svg" xmlns:xlink="http://www.w3.org/1999/xlink" x="0px" y="0px" width="512px"
	 height="512px" viewBox="0 0 512 512" style="enable-background:new 0 0 512 512;" xml:space="preserve">
<g id="F737_x2C__Frost_x2C__snow_x2C__snowflakes">
	<path d="M256,266c-5.523,0-10-4.478-10-10V26c0-5.523,4.477-10,10-10c5.522,0,10,4.477,10,10v230C266,261.522,261.522,266,256,266z
		"/>
	<path d="M256,126c-2.559,0-5.119-0.976-7.071-2.929l-60-60c-3.905-3.905-3.905-10.237,0-14.143c3.905-3.905,10.237-3.905,14.143,0
		l60,60c3.905,3.905,3.905,10.237,0,14.143C261.118,125.024,258.56,126,256,126z"/>
	<path d="M256,126c-2.559,0-5.119-0.976-7.071-2.929c-3.905-3.905-3.905-10.237,0-14.143l60-60c3.906-3.905,10.236-3.905,14.143,0
		c3.905,3.905,3.905,10.237,0,14.143l-60,60C261.118,125.024,258.56,126,256,126z"/>
	<path d="M256,496c-5.523,0-10-4.478-10-10V256c0-5.523,4.477-10,10-10c5.522,0,10,4.477,10,10v230C266,491.522,261.522,496,256,496
		z"/>
	<path d="M196,466c-2.559,0-5.119-0.977-7.071-2.929c-3.905-3.905-3.905-10.237,0-14.143l60-60c3.906-3.904,10.237-3.904,14.143,0
		c3.905,3.905,3.905,10.237,0,14.143l-60,60C201.119,465.023,198.559,466,196,466z"/>
	<path d="M316,466c-2.56,0-5.118-0.977-7.071-2.929l-60-60c-3.905-3.905-3.905-10.237,0-14.143c3.906-3.904,10.237-3.904,14.143,0
		l60,60c3.905,3.905,3.905,10.237,0,14.143C321.118,465.023,318.56,466,316,466z"/>
	<path d="M256,266c-2.559,0-5.119-0.977-7.071-2.929c-3.905-3.905-3.905-10.237,0-14.143L411.563,86.294
		c3.906-3.905,10.236-3.905,14.143,0c3.905,3.905,3.905,10.237,0,14.143L263.071,263.071C261.118,265.023,258.56,266,256,266z"/>
	<path d="M354.995,167.005c-5.522,0-10-4.477-10-10V72.152c0-5.523,4.478-10,10-10s10,4.477,10,10v84.853
		C364.995,162.528,360.518,167.005,354.995,167.005z"/>
	<path d="M439.848,167.005h-84.853c-5.522,0-10-4.477-10-10s4.478-10,10-10h84.853c5.522,0,10,4.477,10,10
		S445.37,167.005,439.848,167.005z"/>
	<path d="M93.365,428.635c-2.559,0-5.119-0.977-7.071-2.929c-3.905-3.905-3.905-10.237,0-14.143l162.635-162.635
		c3.906-3.905,10.237-3.905,14.143,0c3.905,3.905,3.905,10.237,0,14.143L100.437,425.706
		C98.484,427.658,95.924,428.635,93.365,428.635z"/>
	<path d="M157.005,364.995H72.152c-5.523,0-10-4.478-10-10s4.477-10,10-10h84.853c5.523,0,10,4.478,10,10
		S162.528,364.995,157.005,364.995z"/>
	<path d="M157.005,449.848c-5.523,0-10-4.478-10-10v-84.853c0-5.522,4.477-10,10-10s10,4.478,10,10v84.853
		C167.005,445.37,162.528,449.848,157.005,449.848z"/>
	<path d="M486,266H256c-5.523,0-10-4.478-10-10c0-5.523,4.477-10,10-10h230c5.522,0,10,4.477,10,10C496,261.522,491.522,266,486,266
		z"/>
	<path d="M396,266c-2.56,0-5.118-0.977-7.071-2.929c-3.905-3.905-3.905-10.237,0-14.143l60-60c3.906-3.905,10.236-3.905,14.143,0
		c3.905,3.905,3.905,10.237,0,14.143l-60,60C401.118,265.023,398.56,266,396,266z"/>
	<path d="M456,326c-2.56,0-5.118-0.977-7.071-2.929l-60-60c-3.905-3.905-3.905-10.237,0-14.143c3.906-3.905,10.236-3.905,14.143,0
		l60,60c3.905,3.905,3.905,10.237,0,14.143C461.118,325.023,458.56,326,456,326z"/>
	<path d="M256,266H26c-5.523,0-10-4.478-10-10c0-5.523,4.477-10,10-10h230c5.522,0,10,4.477,10,10C266,261.522,261.522,266,256,266z
		"/>
	<path d="M116,266c-2.559,0-5.119-0.977-7.071-2.929l-60-60c-3.905-3.905-3.905-10.237,0-14.143c3.905-3.905,10.237-3.905,14.143,0
		l60,60c3.905,3.905,3.905,10.237,0,14.143C121.119,265.023,118.559,266,116,266z"/>
	<path d="M56,326c-2.559,0-5.119-0.977-7.071-2.929c-3.905-3.905-3.905-10.237,0-14.143l60-60c3.905-3.905,10.237-3.905,14.143,0
		c3.905,3.905,3.905,10.237,0,14.143l-60,60C61.119,325.023,58.559,326,56,326z"/>
	<path d="M418.635,428.635c-2.56,0-5.118-0.977-7.071-2.929L248.929,263.071c-3.905-3.905-3.905-10.237,0-14.143
		c3.906-3.905,10.237-3.905,14.143,0l162.635,162.635c3.905,3.905,3.905,10.237,0,14.143
		C423.753,427.658,421.194,428.635,418.635,428.635z"/>
	<path d="M439.848,364.995h-84.853c-5.522,0-10-4.478-10-10s4.478-10,10-10h84.853c5.522,0,10,4.478,10,10
		S445.37,364.995,439.848,364.995z"/>
	<path d="M354.995,449.848c-5.522,0-10-4.478-10-10v-84.853c0-5.522,4.478-10,10-10s10,4.478,10,10v84.853
		C364.995,445.37,360.518,449.848,354.995,449.848z"/>
	<path d="M256,266c-2.559,0-5.119-0.977-7.071-2.929L86.294,100.437c-3.905-3.905-3.905-10.237,0-14.143
		c3.905-3.905,10.237-3.905,14.143,0l162.635,162.635c3.905,3.905,3.905,10.237,0,14.143C261.118,265.023,258.56,266,256,266z"/>
	<path d="M157.005,167.005c-5.523,0-10-4.477-10-10V72.152c0-5.523,4.477-10,10-10s10,4.477,10,10v84.853
		C167.005,162.528,162.528,167.005,157.005,167.005z"/>
	<path d="M157.005,167.005H72.152c-5.523,0-10-4.477-10-10s4.477-10,10-10h84.853c5.523,0,10,4.477,10,10
		S162.528,167.005,157.005,167.005z"/>
</g>
<g id="Layer_1">
</g>
</svg>
