<?xml version="1.0" encoding="UTF-8" standalone="no"?> <svg width="64" height="64" viewBox="0 0 64 64" fill="none" xmlns="http://www.w3.org/2000/svg">
<path d="M55.4 46.2C54.9 45.9 54.3 46.1 54 46.6C53.7 47.1 54 47.7 54.5 48C55.1 48.3 55.6 48.8 55.8 49.5C55.9 49.9 56.3 50.2 56.7 50.2C56.8 50.2 56.9 50.2 57 50.1C57.5 49.9 57.8 49.3 57.6 48.8C57.2 47.7 56.4 46.7 55.4 46.2Z" fill="black"/>
<path d="M57.9 43C59.2 42.1 60 40.6 60 39C60 38.5 59.5 38 59 38H57C56.8 38 56.5 38 56.3 38.1L56.9 34H59C60.7 34 62 32.7 62 31C62 29.3 60.7 28 59 28H52.8L53.6 26.1C54 26.4 54.5 26.6 54.9 26.8C55.2 26.9 55.6 26.9 55.9 26.9C57.7 26.9 59.3 25.7 59.8 23.9C59.9 23.5 59.9 23.1 59.9 22.7C60.8 22.2 61.5 21.3 61.8 20.3C62.2 18.8 61.7 17.3 60.6 16.3C60.8 15.9 61 15.4 61.2 14.9C62.1 11.7 60.2 8.39999 57 7.59999C56.9 7.59999 56.8 7.49999 56.7 7.49999C56.5 4.99999 54.8 2.79999 52.3 2.19999C49.7 1.49999 47 2.59999 45.7 4.79999C43 4.89999 40.7 6.69999 40 9.29999C38.6 9.89999 37.4 11.1 37 12.6C36.7 13.9 36.9 15.2 37.4 16.2C37.2 16.5 37 16.7 36.9 17.1L36 15.3C35.3 13.9 34.1 12.8 32.6 12.3C32.3 12.2 32.1 12.2 31.8 12.1L31.5 6.79999C31.5 6.49999 31.3 6.19999 31.1 5.99999C30.9 5.79999 30.5 5.79999 30.2 5.89999L26.2 6.99999C25.7 7.19999 25.4 7.69999 25.5 8.19999V8.29999L25.4 8.19999C25 7.79999 24.4 7.79999 24 8.19999L21 11.1C20.8 11.3 20.7 11.6 20.7 11.9C20.7 12.2 20.9 12.5 21.1 12.6L25.6 15.6C25.5 15.9 25.4 16.1 25.3 16.4C25.2 17 25.1 17.5 25.2 18.1C23.7 18.4 22.4 19 21.2 19.9L18.4 17.1C18 16.7 17.4 16.7 17 17.1C16.6 17.5 16.6 18.1 17 18.5L20 21.5C18.5 21.6 17.1 22.6 16.5 24.1L16.4 24.4L7 21.2C6.2 20.9 5.4 21 4.7 21.3C4 21.6 3.4 22.3 3.2 23C2.7 24.6 3.5 26.3 5.1 26.8L8.4 28H5C3.3 28 2 29.3 2 31C2 32.7 3.3 34 5 34H7.1L10.2 55.8C10.6 58.8 13.2 61 16.1 61H45C45.9 61.6 46.8 62 47.9 62C49 62 49.9 61.8 50.9 61.4C51.9 61.8 52.9 62 53.9 62C58.6 62 61.9 54.2 61.9 50C62 47 60.4 44.4 57.9 43ZM55.1 22.6C55.3 22.5 55.5 22.4 55.6 22.3C56.8 21.6 57.6 20.6 57.9 19.3C57.9 19.1 58 19 58 18.8C58.5 18.6 58.9 18.3 59.3 17.9C59.8 18.4 60 19.1 59.8 19.8C59.6 20.5 59.1 21 58.5 21.2C58 21.4 57.7 21.9 57.8 22.4C57.9 22.8 57.9 23.1 57.8 23.4C57.5 24.5 56.4 25.1 55.4 24.8C55 24.7 54.6 24.5 54.4 24.1L55.1 22.6ZM57 40H57.8C57.5 40.9 56.7 41.7 55.7 41.9C55.5 42 55.3 42 55 42H54.2C54.5 41.2 55.2 40.5 56 40.2C56.3 40.1 56.6 40 57 40ZM50.7 12.7C51.2 12.4 51.8 12.6 52.1 13.1C52.4 13.6 52.2 14.2 51.7 14.5C50.5 15.2 49.9 16.7 50.4 18C50.6 18.5 50.3 19.1 49.8 19.3C49.7 19.3 49.6 19.4 49.5 19.4C49.1 19.4 48.7 19.1 48.6 18.7C47.7 16.3 48.6 13.8 50.7 12.7ZM48.8 20.3C48.9 20.5 49.1 20.7 49.2 20.9L48.3 22.7L47.8 20.4C48.2 20.4 48.5 20.4 48.8 20.3ZM47.9 26.9C48.3 26.9 48.6 26.7 48.8 26.3L50.7 22.3C51.1 22.5 51.4 22.7 51.8 22.8C52.1 22.9 52.4 22.9 52.7 22.9L50.5 27.9H44.2L44.4 27.1C44.4 27 44.4 26.8 44.4 26.6L42.8 18.7C43.1 18.6 43.3 18.6 43.6 18.5C44.1 19.2 44.8 19.7 45.6 20L46.8 26C46.9 26.4 47.2 26.7 47.7 26.8C47.9 26.9 47.9 26.9 47.9 26.9ZM45.4 6.19999C45.7 5.69999 46.3 5.49999 46.8 5.79999C47.3 6.09999 47.5 6.69999 47.2 7.19999C46.5 8.39999 46.6 9.89999 47.3 11.1C47.6 11.6 47.4 12.2 46.9 12.5C46.7 12.6 46.6 12.6 46.4 12.6C46.1 12.6 45.7 12.4 45.5 12.1C44.4 10.2 44.4 7.99998 45.4 6.19999ZM43.7 13.4C44.3 13.4 44.7 13.9 44.7 14.4C44.7 14.9 44.8 15.4 45 15.8C45.2 16.3 45 16.9 44.5 17.1C44.4 17.2 44.2 17.2 44.1 17.2C43.7 17.2 43.4 17 43.2 16.6C42.8 15.9 42.7 15.1 42.7 14.3C42.6 13.8 43.1 13.4 43.7 13.4ZM41.6 22.6L42.5 26.9L42.2 28H42L40.7 25.2L39.5 22.6C39.8 22.7 40.2 22.7 40.5 22.7C40.9 22.7 41.3 22.7 41.6 22.6ZM39.8 28H37.8C37.9 28 37.9 28 38 27.9L39.4 27.1L39.8 28ZM38.6 18.2C38.6 18.1 38.7 18 38.8 17.8C39.3 18.2 39.9 18.5 40.6 18.7C40.7 18.7 40.8 18.7 41 18.8L41.4 20.6C41 20.8 40.6 20.8 40.2 20.7C39 20.4 38.3 19.3 38.6 18.2ZM29.6 8.19999L29.8 12.2C29.5 12.3 29.2 12.4 28.8 12.5L27.7 8.69999L29.6 8.19999ZM27.5 16.9C27.7 15.9 28.3 15.1 29.2 14.6C30.1 14.1 31.1 14 32.1 14.3C32.4 14.4 32.7 14.6 33 14.7L32 15.3C31.5 15.6 31.4 16.2 31.6 16.7C31.8 17 32.1 17.2 32.5 17.2C32.7 17.2 32.8 17.2 33 17.1L34.4 16.3L35.7 19L34.5 19.7C34 20 33.9 20.6 34.1 21.1C34.3 21.4 34.6 21.6 35 21.6C35.2 21.6 35.3 21.6 35.5 21.5L36.5 20.9L38.6 25.4L37 26.2C36.5 26.5 36.4 27.1 36.6 27.6C36.7 27.8 36.9 28 37.2 28H33.7L32.6 26.4L35.1 24.9C35.6 24.6 35.7 24 35.5 23.5C35.2 23 34.6 22.9 34.1 23.1L31.4 24.6L29.7 22.1L31.7 20.9C32.2 20.6 32.3 20 32.1 19.5C31.8 19 31.2 18.9 30.7 19.1L28.5 20.3L28 19.7C27.4 18.9 27.2 17.9 27.5 16.9ZM21.2 23.8L21.5 23L22.3 23.8C22.5 24 22.8 24.1 23 24.1C23.2 24.1 23.5 24 23.7 23.8C24.1 23.4 24.1 22.8 23.7 22.4L22.8 21.5C23.7 20.8 24.8 20.4 25.9 20.2C26 20.5 26.2 20.7 26.3 21L31.2 28.1H26.6L19.6 25.7C20.4 25.2 20.9 24.5 21.2 23.8ZM5 32C4.4 32 4 31.6 4 31C4 30.4 4.4 30 5 30H14.2L20 32H5ZM18 55C18 56.1 17.1 57 16 57C14.9 57 14 56.1 14 55V43C14 41.9 14.9 41 16 41C16.5 41 17 41.2 17.4 41.6C17.8 42 18 42.5 18 43V55ZM26 55C26 56.1 25.1 57 24 57C22.9 57 22 56.1 22 55V43C22 41.9 22.9 41 24 41C24.5 41 25 41.2 25.4 41.6C25.8 42 26 42.5 26 43V55ZM25 38H13C12.5 38 12 37.5 12 37C12 36.5 12.5 36 13 36H25C25.5 36 26 36.5 26 37C26 37.5 25.5 38 25 38ZM5.7 25C5.2 24.8 4.9 24.2 5.1 23.7C5.2 23.4 5.4 23.2 5.6 23.1C5.7 23 5.8 23 6 23C6.1 23 6.2 23 6.3 23.1L32.8 32.2C33.2 32.3 33.4 32.6 33.5 33C33.5 33.2 33.5 33.3 33.5 33.5C33.4 33.8 33.2 34 33 34.1C32.8 34.2 32.5 34.2 32.2 34.1L29 33L5.7 25ZM34 55C34 56.1 33.1 57 32 57C30.9 57 30 56.1 30 55V43C30 41.9 30.9 41 32 41C32.5 41 33 41.2 33.4 41.6C33.8 42 34 42.5 34 43V55ZM33.4 30.3L32.5 30H59C59.6 30 60 30.4 60 31C60 31.6 59.6 32 59 32H35.2C34.9 31.2 34.3 30.6 33.4 30.3ZM50.4 38.3C50.5 38.2 50.7 38 51 38C51.3 38 51.5 38.2 51.6 38.3C51.7 38.4 51.8 38.6 51.8 38.9L51.3 42.5L51.1 43.9C51.1 44 50.9 44 50.8 43.9L50.6 42.5L50.1 38.9C50.2 38.6 50.3 38.4 50.4 38.3ZM48.9 36.9C48.6 37.2 48.4 37.6 48.3 38H39C38.5 38 38 37.5 38 37C38 36.5 38.5 36 39 36H51C51.1 36 51.3 36 51.4 36.1C50.5 36 49.5 36.3 48.9 36.9ZM40 57C38.9 57 38 56.1 38 55V43C38 41.9 38.9 41 40 41C40.5 41 41 41.2 41.4 41.6C41.8 42 42 42.5 42 43V44.7C40.8 46.1 40 48 40 50C40 51.7 40.6 54.1 41.6 56.3C41.2 56.7 40.6 57 40 57ZM54 60C53.2 60 52.5 59.8 51.7 59.5C51.6 59.5 51.5 59.4 51.4 59.4C51.3 59.3 51.1 59.3 51 59.3C50.9 59.3 50.7 59.3 50.6 59.4C49.8 59.8 48.9 60 48 60C45 60 42 53.7 42 50C42 46.7 44.7 44 48 44C48.2 44 48.3 44 48.5 44C48.6 44 48.7 44 48.8 44V44.1C48.9 45.2 49.8 46 50.9 46C52 46 52.9 45.2 53 44.1V44C53.1 44 53.2 44 53.3 44C53.5 44 53.7 44 53.8 44C54.3 44 54.8 44.1 55.2 44.2C57.8 44.8 59.8 47.2 59.8 50C60 53.7 57 60 54 60Z" fill="black"/>
</svg>
