<svg xmlns="http://www.w3.org/2000/svg" width="48" height="48" viewBox="0 0 48 48" fill="none" stroke="currentColor" stroke-width="2" stroke-linecap="round" stroke-linejoin="round">
  <path d="M8 12 h32 v22 a2 2 0 0 1 -2 2 H10 a2 2 0 0 1 -2 -2 z" />
  <path d="M8 12 l8 -6 h16 l8 6" />
  <rect x="14" y="18" width="20" height="12" rx="1.5" ry="1.5" />
  <line x1="16" y1="22" x2="32" y2="22" />
  <line x1="16" y1="26" x2="32" y2="26" />
  <path d="M34 20 q1.5 1.5 0 3 q-1.5 1.5 -3 0 q-1.5 -1.5 0 -3 q1 -1 3 0z" />
  <line x1="33" y1="20" x2="35" y2="18" />
</svg>
